HIERARCHY
ROOT Hips
{
	OFFSET	0.00	0.00	0.00
	CHANNELS 6 Xposition Yposition Zposition Zrotation Xrotation Yrotation
	JOINT LeftUpperLeg
	{
		OFFSET	 0.100000	-0.066564	-0.000554
		CHANNELS 3 Zrotation Xrotation Yrotation
		JOINT LeftLowerLeg
		{
			OFFSET	 0.002447	-0.463436	-0.005172
			CHANNELS 3 Zrotation Xrotation Yrotation
			JOINT LeftFoot
			{
				OFFSET	-0.002447	-0.420480	-0.020576
				CHANNELS 3 Zrotation Xrotation Yrotation
				JOINT LeftToes
				{
					OFFSET	 0.003734	-0.104922	 0.126407
					CHANNELS 3 Zrotation Xrotation Yrotation
					End Site
					{
						OFFSET	 0.000000	 0.000000	 0.059955
					}
				}
			}
		}
	}
	JOINT RightUpperLeg
	{
		OFFSET	-0.100000	-0.066564	-0.000554
		CHANNELS 3 Zrotation Xrotation Yrotation
		JOINT RightLowerLeg
		{
			OFFSET	-0.002447	-0.463436	-0.005146
			CHANNELS 3 Zrotation Xrotation Yrotation
			JOINT RightFoot
			{
				OFFSET	 0.002447	-0.420479	-0.020602
				CHANNELS 3 Zrotation Xrotation Yrotation
				JOINT RightToes
				{
					OFFSET	-0.003734	-0.104922	 0.126407
					CHANNELS 3 Zrotation Xrotation Yrotation
					End Site
					{
						OFFSET	-0.000000	 0.000000	 0.059955
					}
				}
			}
		}
	}
	JOINT Spine
	{
		OFFSET	 0.000000	 0.099235	-0.012273
		CHANNELS 3 Zrotation Xrotation Yrotation
		JOINT Chest
		{
			OFFSET	-0.000001	 0.116455	-0.014223
			CHANNELS 3 Zrotation Xrotation Yrotation
			JOINT UpperChest
			{
				OFFSET	 0.000001	 0.133602	-0.016265
				CHANNELS 3 Zrotation Xrotation Yrotation
				JOINT LeftShoulder
				{
					OFFSET	 0.061058	 0.091105	 0.007056
					CHANNELS 3 Zrotation Xrotation Yrotation
					JOINT LeftUpperArm
					{
						OFFSET	 0.133942	-0.002659	-0.026009
						CHANNELS 3 Zrotation Xrotation Yrotation
						JOINT LeftLowerArm
						{
							OFFSET	 0.274047	 0.000000	 0.000000
							CHANNELS 3 Zrotation Xrotation Yrotation
							JOINT LeftHand
							{
								OFFSET	 0.276145	 0.000000	 0.000000
								CHANNELS 3 Zrotation Xrotation Yrotation
								End Site
								{
									OFFSET	 0.165687	 0.000000	 0.000000
								}
							}
						}
					}
				}
				JOINT Neck
				{
					OFFSET	 0.000000	 0.150325	 0.007929
					CHANNELS 3 Zrotation Xrotation Yrotation
					JOINT Head
					{
						OFFSET	 0.000000	 0.103218	 0.031424
						CHANNELS 3 Zrotation Xrotation Yrotation
						End Site
						{
							OFFSET	 0.000000	 0.061931	 0.018855
						}
					}
				}
				JOINT RightShoulder
				{
					OFFSET	-0.061057	 0.091105	 0.007056
					CHANNELS 3 Zrotation Xrotation Yrotation
					JOINT RightUpperArm
					{
						OFFSET	-0.133943	-0.002660	-0.026009
						CHANNELS 3 Zrotation Xrotation Yrotation
						JOINT RightLowerArm
						{
							OFFSET	-0.274047	 0.000000	 0.000000
							CHANNELS 3 Zrotation Xrotation Yrotation
							JOINT RightHand
							{
								OFFSET	-0.276145	 0.000000	 0.000000
								CHANNELS 3 Zrotation Xrotation Yrotation
								End Site
								{
									OFFSET	-0.165687	 0.000000	 0.000000
								}
							}
						}
					}
				}
			}
		}
	}
}
MOTION
Frames:    12
Frame Time: 0.03333334
 0.382420	 1.050740	-1.236000	-4.724417	 1.245165	 27.006120	-3.830992	 8.064072	 8.444490	 0.002820	 0.083578	 0.000054	 7.749889	-9.452888	 19.609310	 0.000025	 0.374364	 0.440800	-3.277969	-10.205850	-16.926930	 0.549954	 16.164020	-0.066263	 1.718273	-4.602014	-6.090713	-0.000859	-1.058511	-0.000192	-0.301692	 0.538571	-0.756886	-0.000000	 0.000000	 0.000000	-0.596044	 1.080679	-1.514838	 2.274076	-1.618628	 18.622080	-80.002790	 7.269726	 2.029118	-22.779330	 24.820930	-50.740030	 45.360850	 21.498840	-26.045190	 10.184420	 14.365310	-5.309090	 10.288790	 14.181570	-5.217948	 0.429110	 5.622045	-17.616970	 81.355740	 0.237968	 3.836693	 5.630528	 14.821800	 27.137090	-39.682770	 28.249500	 21.366420
 0.381640	 1.050920	-1.234910	-4.374946	 1.349575	 26.689600	-4.163179	 8.165823	 8.785044	 0.002928	 0.078486	-0.000243	 7.667608	-9.441114	 19.631150	 0.001325	 0.375627	 0.445067	-3.607318	-10.347440	-16.840480	 0.572771	 16.594970	-0.071650	 1.653832	-4.803022	-5.888813	 0.000709	-1.109670	 0.000518	-0.287513	 0.577083	-0.806843	-0.000000	 0.000000	 0.000000	-0.569572	 1.160831	-1.612884	 2.344967	-1.837865	 18.584850	-79.967660	 7.261919	 2.159588	-22.686370	 25.145880	-50.351250	 45.367130	 21.800970	-26.961140	 10.358100	 14.194210	-5.492956	 10.304180	 14.132030	-5.378336	 0.518040	 5.520273	-17.742430	 81.315310	 0.033148	 3.782757	 5.682784	 14.913740	 27.175690	-39.660570	 28.115990	 21.397940
 0.381640	 1.050920	-1.234910	-4.374946	 1.349575	 26.689600	-4.163179	 8.165823	 8.785044	 0.002928	 0.078486	-0.000243	 7.667608	-9.441114	 19.631150	 0.001325	 0.375627	 0.445067	-3.607318	-10.347440	-16.840480	 0.572771	 16.594970	-0.071650	 1.653832	-4.803022	-5.888813	 0.000709	-1.109670	 0.000518	-0.287513	 0.577083	-0.806843	-0.000000	 0.000000	 0.000000	-0.569572	 1.160831	-1.612884	 2.344967	-1.837865	 18.584850	-79.967660	 7.261919	 2.159588	-22.686370	 25.145880	-50.351250	 45.367130	 21.800970	-26.961140	 10.358100	 14.194210	-5.492956	 10.304180	 14.132030	-5.378336	 0.518040	 5.520273	-17.742430	 81.315310	 0.033148	 3.782757	 5.682784	 14.913740	 27.175690	-39.660570	 28.115990	 21.397940
 0.380400	 1.051090	-1.233170	-4.192246	 1.380041	 26.336200	-4.273418	 8.275375	 9.046896	 0.002798	 0.083714	-0.000613	 7.612805	-9.354400	 19.731700	 0.000519	 0.376449	 0.461399	-3.651784	-10.390760	-16.439270	 0.621675	 16.821510	-0.081141	 1.578151	-4.939108	-5.923866	-0.001124	-1.180978	 0.000025	-0.176993	 0.588156	-0.846414	-0.000000	 0.000000	 0.000000	-0.344592	 1.180793	-1.693780	 2.468210	-2.015457	 18.572700	-79.941030	 7.490178	 2.399171	-22.648520	 25.311860	-50.228520	 45.569680	 22.132160	-27.840770	 10.585050	 14.096560	-5.617517	 10.340700	 14.084710	-5.534870	 0.647331	 5.442041	-17.787960	 81.593800	-0.259754	 3.594024	 5.267644	 14.931560	 26.733270	-39.641220	 27.795550	 21.273710
 0.379350	 1.051350	-1.231460	-4.082670	 1.304905	 26.033000	-4.276791	 8.454879	 9.212626	 0.002708	 0.083718	-0.000689	 7.549185	-9.327414	 19.875140	 0.000413	 0.377624	 0.470259	-3.565981	-10.231850	-16.304900	 0.597847	 16.786540	-0.077410	 1.565173	-4.963683	-5.744908	 0.000618	-1.224015	-0.000145	-0.092204	 0.602781	-0.840693	-0.000000	 0.000000	 0.000000	-0.176231	 1.207807	-1.681357	 2.439826	-2.090096	 18.638000	-80.036200	 7.666337	 2.468294	-22.555800	 25.456560	-50.060780	 45.721500	 21.893020	-28.088380	 10.537940	 14.051210	-5.613304	 10.373240	 14.016150	-5.623380	 0.647941	 5.479942	-17.717540	 81.926030	-0.383537	 3.483891	 4.663376	 14.825210	 26.168690	-39.676920	 27.671640	 21.133470
 0.376930	 1.051920	-1.227620	-3.878892	 1.252670	 25.408730	-4.279331	 8.745475	 9.843388	 0.002817	 0.078491	-0.000577	 7.309955	-9.410276	 19.820230	 0.000145	 0.378918	 0.481275	-3.390764	-9.967538	-15.717740	 0.611658	 16.667900	-0.077723	 1.688857	-5.072541	-5.670261	 0.000141	-1.283970	 0.000397	 0.077750	 0.566575	-0.735058	-0.000000	 0.000000	 0.000000	 0.165992	 1.133255	-1.473901	 2.791261	-1.316778	 18.051820	-80.910210	 6.775863	 2.208139	-22.304880	 26.249730	-50.229240	 45.673050	 21.298320	-28.219230	 10.369370	 13.645040	-5.481324	 10.276680	 13.681990	-5.614817	 0.901817	 5.424576	-17.721160	 81.913360	-0.581351	 2.999267	 4.543153	 13.954720	 25.169160	-41.075300	 28.684490	 21.700470
 0.375930	 1.052040	-1.226260	-3.814272	 1.315281	 25.221810	-4.291397	 8.770875	 10.209570	 0.001799	 0.077973	 0.000228	 7.160045	-9.491374	 19.597860	-0.000254	 0.378098	 0.479508	-3.386536	-9.981348	-15.727410	 0.600253	 16.706120	-0.076145	 1.761735	-5.137862	-5.470071	-0.000074	-1.360960	-0.000183	 0.138233	 0.521916	-0.672123	-0.000000	 0.000000	 0.000000	 0.281671	 1.045246	-1.346168	 2.813316	-1.295200	 17.934160	-80.787930	 6.756464	 2.236905	-22.467680	 26.359500	-50.474960	 45.832640	 21.687780	-28.479060	 10.324990	 13.430180	-5.306063	 10.242010	 13.492560	-5.451557	 1.214497	 5.630633	-17.987130	 81.667500	-0.842441	 2.914293	 4.686899	 13.935030	 25.192280	-42.356060	 28.637900	 22.469820
 0.374690	 1.052170	-1.224870	-3.793164	 1.344436	 25.190560	-4.215618	 8.804985	 10.589880	 0.003048	 0.078490	 0.000288	 6.889994	-9.665505	 19.253610	-0.000519	 0.376776	 0.460672	-3.336352	-9.974434	-15.849360	 0.598176	 16.758540	-0.076372	 1.750219	-5.219342	-5.327322	-0.000234	-1.369059	 0.000643	 0.192929	 0.487039	-0.638232	-0.000000	 0.000000	 0.000000	 0.390527	 0.974978	-1.281493	 3.005066	-0.984019	 17.574480	-80.877440	 6.529975	 2.058720	-22.504770	 26.450580	-50.686070	 46.527100	 22.989140	-28.691230	 10.187460	 13.198910	-5.118410	 10.094810	 13.252760	-5.199135	 1.477608	 5.837540	-18.309720	 81.509500	-1.151889	 2.767910	 4.799515	 14.016820	 25.312260	-44.386810	 27.787140	 23.958440
 0.373520	 1.052260	-1.223580	-3.778976	 1.366139	 25.238120	-4.122485	 8.836323	 10.809450	 0.002165	 0.083053	 0.000284	 6.708758	-9.810204	 18.952980	 0.000654	 0.376037	 0.452892	-3.294049	-9.981242	-15.972300	 0.599159	 16.854640	-0.077956	 1.737473	-5.308434	-5.259104	 0.000215	-1.405550	 0.000840	 0.245450	 0.449637	-0.621021	-0.000000	 0.000000	 0.000000	 0.498336	 0.898796	-1.245274	 3.070097	-1.077869	 17.482720	-80.801540	 6.485404	 2.138538	-22.515550	 26.541500	-50.750310	 46.972520	 23.552380	-29.032290	 10.001560	 12.954390	-4.754509	 9.903543	 13.020220	-4.804945	 1.570905	 5.976891	-18.509210	 81.504010	-1.424039	 2.526652	 4.751608	 14.053160	 25.517640	-46.501570	 26.360700	 25.478250
 0.372660	 1.052280	-1.222520	-3.725860	 1.371145	 25.350080	-4.071150	 8.890941	 10.919300	 0.002462	 0.083027	-0.000791	 6.532212	-9.866487	 18.697680	 0.000065	 0.375968	 0.444347	-3.308223	-9.985741	-16.067480	 0.606053	 17.009820	-0.079707	 1.689610	-5.416786	-5.287145	-0.000094	-1.463924	-0.000037	 0.290942	 0.436184	-0.615240	-0.000000	 0.000000	 0.000000	 0.586659	 0.870865	-1.234924	 3.079533	-1.020537	 17.386970	-80.765460	 6.480939	 2.123227	-22.407410	 26.480950	-50.869980	 46.919150	 23.356940	-29.088230	 9.759812	 12.740370	-4.249330	 9.675522	 12.764760	-4.265122	 1.906410	 6.182752	-18.913630	 81.306790	-1.421651	 2.552772	 4.766330	 13.891150	 25.945130	-48.241110	 25.160890	 26.456650
 0.371100	 1.052370	-1.220860	-3.655478	 1.330438	 25.594170	-3.939269	 9.008742	 10.962970	 0.004019	 0.092855	 0.000140	 6.194228	-10.049830	 18.422150	-0.000269	 0.373530	 0.415928	-3.285335	-9.951337	-16.172410	 0.620331	 17.248240	-0.083071	 1.600312	-5.588308	-5.415389	-0.000477	-1.492321	 0.000391	 0.355048	 0.409853	-0.613318	-0.000000	 0.000000	 0.000000	 0.715017	 0.819776	-1.229706	 3.148824	-0.928945	 17.240940	-80.563140	 6.565731	 2.098812	-22.285920	 26.380910	-50.891280	 46.934180	 22.843090	-28.793490	 9.570747	 12.442810	-3.380167	 9.444894	 12.490820	-3.396027	 2.096666	 6.224873	-19.163800	 81.277310	-1.590080	 2.553921	 4.889600	 13.490740	 26.631970	-49.044440	 23.994780	 26.383970
 0.370210	 1.052430	-1.219800	-3.561127	 1.359116	 25.793180	-3.923755	 9.065292	 10.968450	 0.002692	 0.083037	 0.000070	 5.989768	-10.197090	 18.231250	 0.000285	 0.372009	 0.397120	-3.351787	-9.961310	-16.269800	 0.621809	 17.423250	-0.083970	 1.580227	-5.704951	-5.513969	 0.000213	-1.586408	 0.000018	 0.390542	 0.363469	-0.592109	-0.000000	 0.000000	 0.000000	 0.786048	 0.724212	-1.187691	 3.043619	-0.951263	 17.232500	-80.436100	 6.568138	 2.115723	-22.194950	 26.358420	-50.893150	 46.951390	 22.504850	-28.490060	 9.492664	 12.316120	-2.602043	 9.433138	 12.402020	-2.660379	 2.047643	 6.169928	-19.175990	 81.259690	-1.757199	 2.813647	 5.173387	 13.024170	 26.571130	-49.048780	 23.336570	 26.189840
